HIERARCHY
ROOT root
{
	OFFSET	0	13.1	24.9
	CHANNELS 6  Xposition Yposition Zposition Xrotation Yrotation Zrotation
	JOINT spine_1
	{
		OFFSET	0	9.99999	0
		CHANNELS 3  Xrotation Yrotation Zrotation
		JOINT spine_2
		{
			OFFSET	0	112	-10
			CHANNELS 3  Xrotation Yrotation Zrotation
			JOINT spine_3
			{
				OFFSET	0	206.5	19.3
				CHANNELS 3  Xrotation Yrotation Zrotation
				JOINT spine_4
				{
					OFFSET	0	110.4	14.6
					CHANNELS 3  Xrotation Yrotation Zrotation
					JOINT neck_1
					{
						OFFSET	0	71.8	-50.3
						CHANNELS 3  Xrotation Yrotation Zrotation
						JOINT neck_2
						{
							OFFSET	0	86.2	-25.8
							CHANNELS 3  Xrotation Yrotation Zrotation
							JOINT head_ee
							{
								OFFSET	0	179.8	-8.7
								CHANNELS 3  Xrotation Yrotation Zrotation
								End Site
								{
									OFFSET	1	0	0
								}
							}
						}
					}
					JOINT left_clavicle
					{
						OFFSET	-43.2	22.4	-70.8
						CHANNELS 3  Xrotation Yrotation Zrotation
						JOINT left_shoulder
						{
							OFFSET	-93.9	-5.79999	48.7
							CHANNELS 3  Xrotation Yrotation Zrotation
							JOINT left_elbow
							{
								OFFSET	-291.4	-30.8	15.2
								CHANNELS 3  Xrotation Yrotation Zrotation
								JOINT left_lowarm_twist
								{
									OFFSET	-110.7	-3.89999	13.6
									CHANNELS 3  Xrotation Yrotation Zrotation
									JOINT left_hand
									{
										OFFSET	-110.7	-3.89999	13.6
										CHANNELS 3  Xrotation Yrotation Zrotation
										JOINT left_ee
										{
											OFFSET	-80.8	-5.10001	12.1
											CHANNELS 3  Xrotation Yrotation Zrotation
											End Site
											{
												OFFSET	1	0	0
											}
										}
									}
								}
							}
						}
					}
					JOINT right_clavicle
					{
						OFFSET	43.2	22.4	-70.8
						CHANNELS 3  Xrotation Yrotation Zrotation
						JOINT right_shoulder
						{
							OFFSET	93.9	-5.79999	48.7
							CHANNELS 3  Xrotation Yrotation Zrotation
							JOINT right_elbow
							{
								OFFSET	291.4	-30.8	15.2
								CHANNELS 3  Xrotation Yrotation Zrotation
								JOINT right_lowarm_twist
								{
									OFFSET	110.7	-3.89999	13.6
									CHANNELS 3  Xrotation Yrotation Zrotation
									JOINT right_hand
									{
										OFFSET	110.7	-3.89999	13.6
										CHANNELS 3  Xrotation Yrotation Zrotation
										JOINT right_ee
										{
											OFFSET	80.8	-5.10001	12.1
											CHANNELS 3  Xrotation Yrotation Zrotation
											End Site
											{
												OFFSET	1	0	0
											}
										}
									}
								}
							}
						}
					}
				}
			}
		}
	}
	JOINT left_hip
	{
		OFFSET	-82.8	-127.5	0.300001
		CHANNELS 3  Xrotation Yrotation Zrotation
		JOINT left_knee
		{
			OFFSET	-28.2	-396.7	2.2
			CHANNELS 3  Xrotation Yrotation Zrotation
			JOINT left_ankle
			{
				OFFSET	-11.7	-411.3	35.4
				CHANNELS 3  Xrotation Yrotation Zrotation
				JOINT left_toes
				{
					OFFSET	0	-60	-88.6
					CHANNELS 3  Xrotation Yrotation Zrotation
					JOINT left_foot_ee
					{
						OFFSET	-22.5	-16.5	-42.2
						CHANNELS 3  Xrotation Yrotation Zrotation
						End Site
						{
							OFFSET	1	0	0
						}
					}
				}
			}
		}
	}
	JOINT right_hip
	{
		OFFSET	82.8	-127.5	0.300001
		CHANNELS 3  Xrotation Yrotation Zrotation
		JOINT right_knee
		{
			OFFSET	28.2	-396.7	2.2
			CHANNELS 3  Xrotation Yrotation Zrotation
			JOINT right_ankle
			{
				OFFSET	11.7	-411.3	35.4
				CHANNELS 3  Xrotation Yrotation Zrotation
				JOINT right_toes
				{
					OFFSET	0	-60	-88.6
					CHANNELS 3  Xrotation Yrotation Zrotation
					JOINT right_foot_ee
					{
						OFFSET	22.5	-16.5	-42.2
						CHANNELS 3  Xrotation Yrotation Zrotation
						End Site
						{
							OFFSET	1	0	0
						}
					}
				}
			}
		}
	}
}
MOTION
Frames: 11
Frame Time: 0.02
2493.37 694.279 -1147.13 -26.6045 45.6449 22.7591 6.19095 -0.0304248 0.875941 6.19137 -0.0860994 0.87223 6.18958 -0.175964 0.858625 6.18856 -0.0381577 0.875638 -4.33572 14.275 -3.03556 -4.02707 28.4678 -0.815825 -0.0 0.0 -0.0 -0.223196 16.2966 1.56359 -33.5772 -29.2532 69.3096 0.5211 -14.4744 0.0661744 33.3984 -0.0511256 -4.20631 1.06202 5.30885 9.22654 -0.0 0.0 -0.0 9.69552 13.1146 -19.0918 -14.718 19.1186 -57.299 2.3334 49.1289 -1.06668 11.93 -0.265204 1.49813 1.05774 5.06558 -4.989 0.0 0.0 0.0 37.8413 -16.0207 -12.3945 0.0996417 -0.00411582 -0.014737 -3.97239 8.2248 0.586366 -16.4543 0.0 0.0 -0.0 0.0 -0.0 3.58449 28.226 1.64246 -14.6401 -0.320969 -2.21767 39.0216 -21.0364 4.96156 2.99697 -0.0 -0.0 0.0 0.0 0.0 
2467.32 695.442 -1153.46 -25.0862 44.3784 20.9227 6.08579 -0.00365843 0.922704 6.08626 -0.0623625 0.920602 6.08473 -0.159027 0.908906 6.08357 -0.0134927 0.922613 -3.55344 14.2829 -2.42755 -3.20095 27.9367 -0.3809 -0.0 0.0 -0.0 -0.691839 15.6505 0.743198 -33.14 -29.622 69.5456 0.534452 -14.8291 0.0695517 33.6339 -0.0601837 -4.23501 1.0975 5.26314 9.44489 -0.0 0.0 -0.0 9.67451 12.916 -19.0522 -15.576 18.7868 -58.2308 2.33478 49.1457 -1.06773 11.1224 -0.257152 1.39529 1.02037 4.87518 -4.81614 0.0 0.0 0.0 37.4038 -15.5778 -11.6897 -2.03157 0.0783011 0.301928 -3.82523 10.6647 0.564856 -16.1889 0.0 0.0 -0.0 0.0 -0.0 3.37418 28.4214 2.55447 -17.6344 -0.316296 -2.67701 38.9154 -22.2576 4.98262 2.815 -0.0 -0.0 0.0 0.0 0.0 
2436.62 695.993 -1155.45 -23.7389 43.3451 19.8001 6.1311 -0.072623 0.91569 6.13156 -0.130741 0.909214 6.12898 -0.225145 0.890548 6.12788 -0.0816799 0.914926 -2.84814 13.9353 -2.87528 -2.42901 27.562 -1.07441 -0.0 0.0 -0.0 -0.727375 15.4137 0.655241 -31.9467 -30.0161 69.8579 0.536304 -14.8782 0.0700266 33.7192 -0.063496 -4.24541 1.07895 5.21972 9.30446 -0.0 0.0 -0.0 9.46837 13.1767 -18.59 -16.9248 18.2596 -59.2827 2.2632 48.2616 -1.01394 10.752 -0.252975 1.34817 0.991092 5.20196 -4.48098 0.0 0.0 0.0 36.1861 -16.0059 -11.7569 -4.43183 0.156933 0.661878 -3.96059 12.3571 0.585892 -16.0612 0.0 0.0 -0.0 0.0 -0.0 3.29574 29.162 3.36334 -19.4248 -0.302038 -2.95134 38.8376 -23.3441 5.00505 2.71101 -0.0 -0.0 0.0 0.0 0.0 
2410.25 702.023 -1161.09 -22.7972 41.9764 19.3408 6.11173 -0.0500898 0.941165 6.11221 -0.109874 0.936071 6.10988 -0.207507 0.919372 6.1087 -0.059712 0.940604 -3.56613 14.2689 -1.6562 -3.24886 27.3261 0.426527 -0.0 0.0 -0.0 -0.714519 14.0378 0.49225 -28.0222 -29.8403 68.2062 0.531769 -14.7579 0.0688668 34.0341 -0.0758508 -4.28372 0.813228 5.47298 7.64036 -0.0 0.0 -0.0 9.24879 13.342 -18.102 -17.9639 17.8405 -60.5689 2.09873 46.108 -0.893276 10.7477 -0.252924 1.34762 0.796662 4.12151 -3.62086 0.0 0.0 0.0 35.4115 -16.0789 -11.7108 -8.70095 0.259269 1.30888 -0.874668 17.2373 0.129786 -15.6113 0.0 0.0 -0.0 0.0 -0.0 4.90452 29.6641 2.59515 -20.9833 -0.282655 -3.18967 38.5636 -25.9227 5.05757 2.57677 -0.0 -0.0 0.0 0.0 0.0 
2387.93 704.429 -1167.74 -22.7582 42.7315 19.3638 5.96687 -0.095016 1.03383 5.96745 -0.160605 1.02569 5.96396 -0.269929 1.00249 5.96257 -0.108226 1.03253 -3.88902 14.1862 -0.834891 -3.63037 26.5939 1.34431 -0.0 0.0 -0.0 -0.429416 13.3127 0.864364 -25.9462 -30.5308 67.3132 0.495639 -13.7949 0.0599567 34.0423 -0.076172 -4.28471 0.568146 5.78309 6.14557 -0.0 0.0 -0.0 9.3874 13.88 -18.3853 -18.9879 17.5176 -61.8499 1.91443 43.4769 -0.763391 10.7392 -0.252825 1.34654 0.641305 3.59396 -2.79449 0.0 0.0 0.0 35.0398 -15.8336 -10.8285 -12.1372 0.306458 1.83396 4.72502 23.6547 -0.708552 -13.8197 0.0 0.0 -0.0 0.0 -0.0 8.06191 34.4361 1.54346 -27.3095 -0.137679 -4.14918 38.8247 -26.818 5.11428 2.65817 -0.0 -0.0 0.0 0.0 0.0 
2357.96 708.502 -1179.18 -22.8997 44.8777 20.5348 5.5318 -0.113068 0.746491 5.53209 -0.160339 0.737784 5.52975 -0.244128 0.714448 5.52906 -0.128234 0.744036 -3.60143 14.7201 -0.252541 -3.3178 27.0895 1.96204 -0.0 0.0 -0.0 -0.411873 13.2216 0.88173 -23.649 -29.5426 66.8598 0.517822 -14.3871 0.0653574 33.9956 -0.0743254 -4.27903 0.510196 4.78247 5.36213 -0.0 0.0 -0.0 8.80654 12.2388 -17.1769 -19.631 17.0708 -62.2748 1.68179 39.7947 -0.60875 10.5827 -0.250963 1.32663 0.380222 1.85297 -1.76755 0.0 0.0 0.0 36.6202 -14.6424 -9.4091 -17.8841 0.314822 2.71529 3.03196 23.2062 -0.455669 -15.083 0.0 0.0 -0.0 0.0 -0.0 9.32398 32.2412 0.309406 -31.3952 0.0118996 -4.75824 41.5649 -25.4424 5.33086 4.06609 -0.0 -0.0 0.0 0.0 0.0 
2326.86 713.333 -1188.62 -20.4581 47.2333 18.0391 4.75828 -0.0462565 1.01586 4.75884 -0.110802 1.01086 4.75645 -0.239693 0.988268 4.75509 -0.0806147 1.01372 -3.32949 15.1805 -0.141815 -3.0077 27.8064 2.07986 -0.0 0.0 -0.0 0.294999 13.1891 2.04175 -22.1107 -29.3629 63.9142 0.439209 -12.2748 0.0472282 33.6263 -0.0598887 -4.23409 0.333574 5.22586 4.37718 -0.0 0.0 -0.0 8.55055 10.8851 -16.6672 -20.2702 17.2058 -62.9961 1.57792 38.0104 -0.543511 12.294 -0.268359 1.54451 0.0910226 -5.24436 -2.79034 0.0 0.0 0.0 35.2435 -14.4393 -6.11957 -24.5928 0.21292 3.73909 11.7731 27.693 -1.7686 -10.8476 0.0 0.0 -0.0 0.0 -0.0 14.0163 36.749 -3.08138 -45.5738 0.858895 -6.76026 41.0679 -26.028 5.30479 8.19335 -0.0 -0.0 0.0 0.0 0.0 
2298.87 719.445 -1195.11 -19.294 49.0863 16.9574 4.53142 -0.0747419 0.870912 4.53183 -0.130007 0.864391 4.52957 -0.243254 0.839586 4.5286 -0.107609 0.867464 -3.85251 15.7807 0.671535 -3.57196 28.3767 3.13537 -0.0 0.0 -0.0 0.758709 12.7558 2.76314 -19.0428 -29.2418 62.5744 0.445721 -12.4512 0.0486224 33.9393 -0.0721056 -4.27218 0.139209 6.08532 3.45158 -0.0 0.0 -0.0 8.51512 10.3708 -16.606 -21.591 16.9466 -63.4236 1.34839 33.7393 -0.40891 12.6149 -0.270896 1.58542 -0.211803 -8.31781 -2.08704 0.0 0.0 0.0 34.5056 -13.1708 -4.77472 -31.0633 0.00187126 4.70917 12.215 28.6443 -1.84368 -8.82492 0.0 0.0 -0.0 0.0 -0.0 17.4887 39.3588 -6.26834 -54.0348 1.59143 -7.83634 41.0904 -25.3787 5.28424 11.3839 -0.0 -0.0 0.0 0.0 0.0 
2275.56 714.509 -1200.98 -16.9281 50.559 14.4935 4.14871 -0.0571105 0.924162 4.14918 -0.115799 0.918656 4.14703 -0.242325 0.893656 4.14593 -0.0981539 0.920708 -5.04968 16.1341 1.03966 -4.87034 28.9615 3.86362 -0.0 0.0 -0.0 1.03325 11.9873 3.14815 -16.8839 -29.3907 61.0693 0.501219 -13.9441 0.0612943 35.0576 -0.117456 -4.40776 0.16995 7.37892 4.17936 -0.0 0.0 -0.0 8.43479 9.511 -16.4564 -22.7089 16.7665 -63.1186 1.25352 31.8372 -0.357529 13.3818 -0.276031 1.68325 -0.563742 -13.5969 -2.04974 0.0 0.0 0.0 33.4052 -11.7641 -3.63265 -35.0065 -0.180017 5.28672 13.1636 28.9959 -1.98535 -7.03369 0.0 0.0 -0.0 0.0 -0.0 21.2284 41.4414 -10.4895 -61.1719 2.32785 -8.65327 39.6918 -24.3611 5.11795 13.3849 -0.0 -0.0 0.0 0.0 0.0 
2258.92 712.886 -1203.29 -16.1789 51.3225 14.0794 3.93351 -0.0923785 0.748729 3.93381 -0.139834 0.741334 3.93183 -0.244166 0.713802 3.93114 -0.128374 0.743404 -6.0819 16.3241 1.38992 -5.99863 29.2356 4.51519 -0.0 0.0 -0.0 1.08258 11.0706 3.14766 -15.0865 -29.5926 59.3087 0.553622 -15.3364 0.07454 35.8495 -0.151165 -4.50321 0.220404 8.24527 4.85744 -0.0 0.0 -0.0 8.37993 8.83657 -16.3548 -23.4676 16.5727 -62.7118 1.14846 29.635 -0.30382 13.8413 -0.27848 1.74189 -0.851083 -17.4709 -1.91798 0.0 0.0 0.0 32.2416 -10.941 -3.01517 -37.7962 -0.33255 5.68728 13.9402 28.4985 -2.08998 -5.76573 0.0 0.0 -0.0 0.0 -0.0 24.4352 42.9151 -13.7821 -65.2757 2.79578 -9.07993 38.1022 -23.6507 4.94168 14.6106 -0.0 -0.0 0.0 0.0 0.0 
2233.86 728.813 -1209.51 -14.1595 50.7176 13.2451 3.45293 -0.0149837 0.586119 3.45312 -0.052249 0.583978 3.4525 -0.139789 0.569403 3.45205 -0.04811 0.584334 -7.65814 16.4102 1.99361 -7.7253 29.2334 5.54479 -0.0 0.0 -0.0 1.2339 10.2917 3.33605 -13.614 -29.8023 58.2159 0.662053 -18.1576 0.105794 37.2836 -0.215568 -4.67489 0.236475 7.83249 4.79574 -0.0 0.0 -0.0 8.12015 7.9435 -15.8214 -24.3246 16.5655 -63.331 1.06439 27.8006 -0.263424 14.1736 -0.279958 1.7843 -0.870654 -20.1007 -2.9197 0.0 0.0 0.0 28.7636 -10.4985 -3.06672 -40.1304 -0.475082 6.01652 14.8273 28.105 -2.21041 -4.87849 0.0 0.0 -0.0 0.0 -0.0 33.015 43.0127 -18.1316 -67.9765 3.12 -9.34216 36.9092 -21.9739 4.77837 13.3443 -0.0 -0.0 0.0 0.0 0.0 
